<?xml version="1.0" standalone="no"?>
<!DOCTYPE svg PUBLIC "-//W3C//DTD SVG 20010904//EN"
 "http://www.w3.org/TR/2001/REC-SVG-20010904/DTD/svg10.dtd">
<svg version="1.0" xmlns="http://www.w3.org/2000/svg"
 width="70.000000pt" height="70.000000pt" viewBox="0 0 70.000000 70.000000"
 preserveAspectRatio="xMidYMid meet">

<g transform="translate(0.000000,70.000000) scale(0.100000,-0.100000)"
fill="#000000" stroke="none">
<path d="M10 681 c-11 -21 -15 -637 -4 -665 5 -14 46 -16 350 -16 l344 0 -2
348 -3 347 -337 3 c-325 2 -338 2 -348 -17z m668 -333 l2 -328 -325 0 -325 0
0 323 c0 178 3 327 7 330 4 4 149 6 322 5 l316 -3 3 -327z"/>
<path d="M88 639 c-14 -8 -18 -24 -18 -72 0 -36 5 -68 12 -75 17 -17 529 -17
546 0 18 18 15 123 -4 142 -13 14 -51 16 -267 16 -153 0 -259 -5 -269 -11z
m522 -74 l0 -55 -260 0 -260 0 0 55 0 55 260 0 260 0 0 -55z"/>
<path d="M81 446 c-8 -9 -11 -72 -9 -202 l3 -189 274 -3 c213 -2 276 1 283 10
13 22 10 372 -4 386 -19 19 -531 17 -547 -2z m259 -101 l0 -85 -125 0 -125 0
0 85 0 85 125 0 125 0 0 -85z m270 0 l0 -86 -122 3 -123 3 -3 83 -3 82 126 0
125 0 0 -85z m-270 -190 l0 -85 -125 0 -125 0 0 85 0 85 125 0 125 0 0 -85z
m270 0 l0 -85 -125 0 -125 0 0 85 0 85 125 0 125 0 0 -85z"/>
<path d="M208 388 c-2 -15 -11 -24 -25 -26 -13 -2 -23 -7 -23 -12 0 -5 10 -10
23 -12 14 -2 23 -11 25 -25 5 -31 22 -29 22 2 0 20 5 25 26 25 14 0 23 4 19
10 -3 6 -15 10 -26 10 -12 0 -19 7 -19 19 0 29 -18 35 -22 9z"/>
<path d="M430 350 c0 -6 27 -10 60 -10 33 0 60 4 60 10 0 6 -27 10 -60 10 -33
0 -60 -4 -60 -10z"/>
<path d="M170 191 c0 -5 7 -14 15 -21 14 -12 14 -15 -1 -31 -22 -24 -10 -37
14 -16 17 15 19 15 35 0 21 -22 35 -8 19 18 -10 16 -11 24 -1 35 16 19 4 30
-16 14 -12 -10 -19 -10 -27 -2 -14 14 -38 16 -38 3z"/>
<path d="M437 184 c-17 -18 -3 -24 54 -24 44 0 60 3 57 13 -5 13 -99 23 -111
11z"/>
<path d="M430 140 c0 -6 27 -10 60 -10 33 0 60 4 60 10 0 6 -27 10 -60 10 -33
0 -60 -4 -60 -10z"/>
</g>
</svg>
